<svg xmlns="http://www.w3.org/2000/svg" xmlns:xlink="http://www.w3.org/1999/xlink" width="2200" zoomAndPan="magnify" viewBox="0 0 1650 599.999999" height="800" preserveAspectRatio="xMidYMid meet" version="1.0"><defs><g/><clipPath id="5fac9f8de8"><path d="M 363.597656 179.140625 L 545 179.140625 L 545 305 L 363.597656 305 Z M 363.597656 179.140625 " clip-rule="nonzero"/></clipPath><clipPath id="c6f9871b91"><path d="M 363.597656 218 L 545.097656 218 L 545.097656 347 L 363.597656 347 Z M 363.597656 218 " clip-rule="nonzero"/></clipPath><clipPath id="0bdf6f84fd"><path d="M 363.597656 259 L 545 259 L 545 386.890625 L 363.597656 386.890625 Z M 363.597656 259 " clip-rule="nonzero"/></clipPath></defs><g clip-path="url(#5fac9f8de8)"><path fill="#ffffff" d="M 544.882812 179.285156 L 363.824219 179.140625 L 454.175781 304.871094 Z M 544.882812 179.285156 " fill-opacity="1" fill-rule="nonzero"/></g><g clip-path="url(#c6f9871b91)"><path fill="#ffffff" d="M 542.226562 221.554688 L 454.175781 343.476562 L 366.550781 221.480469 L 542.226562 221.554688 M 545.097656 221.554688 C 545.097656 221.125 545.023438 220.691406 544.808594 220.261719 C 544.308594 219.328125 543.304688 218.683594 542.226562 218.683594 L 366.550781 218.613281 C 365.476562 218.613281 364.472656 219.183594 363.96875 220.191406 C 363.753906 220.621094 363.683594 221.050781 363.683594 221.480469 C 363.683594 222.054688 363.898438 222.628906 364.257812 223.132812 L 451.878906 345.128906 C 452.453125 345.847656 453.3125 346.347656 454.175781 346.347656 C 455.105469 346.347656 455.96875 345.917969 456.46875 345.128906 L 544.523438 223.277344 C 544.882812 222.773438 545.097656 222.199219 545.097656 221.554688 Z M 545.097656 221.554688 " fill-opacity="1" fill-rule="nonzero"/></g><g clip-path="url(#0bdf6f84fd)"><path fill="#ffffff" d="M 542.082031 262.027344 L 454.03125 383.878906 L 366.410156 261.882812 L 542.082031 262.027344 M 544.953125 262.027344 C 544.953125 261.597656 544.882812 261.167969 544.667969 260.734375 C 544.164062 259.804688 543.160156 259.15625 542.082031 259.15625 L 366.410156 259.011719 C 365.332031 259.011719 364.328125 259.585938 363.824219 260.59375 C 363.609375 261.023438 363.539062 261.453125 363.539062 261.882812 C 363.539062 262.457031 363.753906 263.03125 364.113281 263.535156 L 451.734375 385.53125 C 452.308594 386.25 453.167969 386.75 454.03125 386.75 C 454.964844 386.75 455.824219 386.320312 456.328125 385.53125 L 544.378906 263.75 C 544.738281 263.246094 544.953125 262.601562 544.953125 262.027344 Z M 544.953125 262.027344 " fill-opacity="1" fill-rule="nonzero"/></g><g fill="#ffffff" fill-opacity="1"><g transform="translate(-12.487309, 400.125003)"><g><path d="M 30.1875 0 L 30.1875 -175.046875 L 95.3125 -175.046875 C 108.0625 -175.046875 119.84375 -171.859375 130.65625 -165.484375 C 141.46875 -159.117188 150.054688 -150.523438 156.421875 -139.703125 C 162.796875 -128.890625 165.984375 -117.113281 165.984375 -104.375 L 165.984375 -70.671875 C 165.984375 -57.929688 162.796875 -46.148438 156.421875 -35.328125 C 150.054688 -24.515625 141.46875 -15.921875 130.65625 -9.546875 C 119.84375 -3.179688 108.0625 0 95.3125 0 Z M 30.1875 0 "/></g></g></g><g fill="#ffffff" fill-opacity="1"><g transform="translate(173.620533, 400.125003)"><g><path d="M 30.1875 -175.046875 L 157.6875 -175.046875 L 157.6875 -130.78125 L 75.953125 -130.78125 L 75.953125 -108.640625 L 143.859375 -108.640625 L 143.859375 -66.640625 L 75.953125 -66.640625 L 75.953125 -44.265625 L 157.6875 -44.265625 L 157.6875 0 L 30.1875 0 Z M 30.1875 -175.046875 "/></g></g></g><g fill="#ffffff" fill-opacity="1"><g transform="translate(359.728375, 400.125003)"><g><path d="M 10.5625 -175.296875 L 175.546875 -175.296875 L 93.0625 3.515625 Z M 93.0625 -18.609375 L 161.21875 -165.984375 L 25.15625 -165.984375 Z M 93.0625 -18.609375 "/></g></g></g><g fill="#ffffff" fill-opacity="1"><g transform="translate(545.836217, 400.125003)"><g><path d="M 94.3125 4.53125 C 70 4.53125 51.257812 -1.207031 38.09375 -12.6875 C 24.9375 -24.175781 18.441406 -41.410156 18.609375 -64.390625 L 59.609375 -64.390625 C 59.441406 -54.828125 62.289062 -47.53125 68.15625 -42.5 C 74.019531 -37.46875 82.234375 -34.953125 92.796875 -34.953125 C 101.515625 -34.953125 108.390625 -36.378906 113.421875 -39.234375 C 118.453125 -42.085938 120.96875 -46.445312 120.96875 -52.3125 C 120.96875 -57.175781 118.410156 -60.695312 113.296875 -62.875 C 108.179688 -65.050781 103.109375 -66.597656 98.078125 -67.515625 C 93.054688 -68.441406 89.957031 -68.988281 88.78125 -69.15625 C 75.863281 -71.675781 64.710938 -74.738281 55.328125 -78.34375 C 45.941406 -81.945312 38.0625 -87.4375 31.6875 -94.8125 C 25.3125 -102.1875 22.125 -111.910156 22.125 -123.984375 C 22.125 -136.054688 25.3125 -146.328125 31.6875 -154.796875 C 38.0625 -163.265625 46.570312 -169.59375 57.21875 -173.78125 C 67.863281 -177.976562 79.472656 -180.078125 92.046875 -180.078125 C 107.304688 -180.078125 120.507812 -177.222656 131.65625 -171.515625 C 142.8125 -165.816406 151.570312 -157.1875 157.9375 -145.625 C 161.125 -140.082031 163.050781 -134.753906 163.71875 -129.640625 C 164.394531 -124.535156 164.734375 -119.550781 164.734375 -114.6875 L 123.734375 -114.6875 C 123.734375 -123.738281 121.300781 -130.398438 116.4375 -134.671875 C 111.582031 -138.953125 104.039062 -141.09375 93.8125 -141.09375 C 85.59375 -141.09375 79.21875 -139.664062 74.6875 -136.8125 C 70.164062 -133.96875 67.90625 -130.113281 67.90625 -125.25 C 67.90625 -119.882812 70.921875 -115.941406 76.953125 -113.421875 C 82.992188 -110.910156 90.625 -108.648438 99.84375 -106.640625 C 114.9375 -103.617188 126.710938 -100.722656 135.171875 -97.953125 C 143.640625 -95.191406 150.976562 -90.289062 157.1875 -83.25 C 163.394531 -76.207031 166.5 -66.3125 166.5 -53.5625 C 166.5 -41.5 163.144531 -31.109375 156.4375 -22.390625 C 149.726562 -13.671875 140.878906 -7.003906 129.890625 -2.390625 C 118.910156 2.222656 107.050781 4.53125 94.3125 4.53125 Z M 94.3125 4.53125 "/></g></g></g><g fill="#ffffff" fill-opacity="1"><g transform="translate(731.944059, 400.125003)"><g><path d="M 34.953125 0 L 34.953125 -175.046875 L 108.140625 -175.046875 C 120.378906 -175.046875 130.941406 -172.78125 139.828125 -168.25 C 150.054688 -163.050781 158.1875 -155.628906 164.21875 -145.984375 C 170.257812 -136.347656 173.28125 -125.75 173.28125 -114.1875 C 173.28125 -102.613281 170.300781 -91.960938 164.34375 -82.234375 C 158.394531 -72.515625 150.304688 -65.054688 140.078125 -59.859375 C 131.359375 -55.328125 120.710938 -53.0625 108.140625 -53.0625 L 80.734375 -53.0625 L 80.734375 0 Z M 34.953125 0 "/></g></g></g><g fill="#ffffff" fill-opacity="1"><g transform="translate(918.051901, 400.125003)"><g><path d="M 25.65625 0 L 25.65625 -175.046875 L 34.953125 -175.046875 L 34.953125 -125.5 C 52.222656 -125.5 68.570312 -122.1875 84 -115.5625 C 99.425781 -108.9375 112.921875 -99.710938 124.484375 -87.890625 C 136.054688 -76.078125 144.945312 -62.539062 151.15625 -47.28125 L 151.15625 -175.046875 L 160.453125 -175.046875 L 160.453125 0 L 151.15625 0 C 151.15625 -20.957031 145.957031 -40.363281 135.5625 -58.21875 C 125.164062 -76.070312 111.035156 -90.195312 93.171875 -100.59375 C 75.316406 -110.988281 55.910156 -116.1875 34.953125 -116.1875 L 34.953125 0 Z M 25.65625 0 "/></g></g></g><g fill="#ffffff" fill-opacity="1"><g transform="translate(1104.159743, 400.125003)"><g><path d="M 30.1875 -175.046875 L 157.6875 -175.046875 L 157.6875 -130.78125 L 75.953125 -130.78125 L 75.953125 -108.640625 L 143.859375 -108.640625 L 143.859375 -66.640625 L 75.953125 -66.640625 L 75.953125 -44.265625 L 157.6875 -44.265625 L 157.6875 0 L 30.1875 0 Z M 30.1875 -175.046875 "/></g></g></g><g fill="#ffffff" fill-opacity="1"><g transform="translate(1290.267585, 400.125003)"><g><path d="M 165.484375 0 L 30.9375 0 L 30.9375 -175.046875 L 99.09375 -175.046875 C 113.675781 -175.046875 125.578125 -172.445312 134.796875 -167.25 C 143.859375 -162.21875 150.898438 -155.34375 155.921875 -146.625 C 160.953125 -137.90625 163.46875 -128.265625 163.46875 -117.703125 C 163.46875 -104.617188 159.441406 -92.921875 151.390625 -82.609375 C 143.347656 -72.304688 133.207031 -65.476562 120.96875 -62.125 Z M 46.78125 -165.734375 L 115.1875 -70.171875 C 126.414062 -72.515625 135.71875 -78.128906 143.09375 -87.015625 C 150.476562 -95.898438 154.171875 -106.128906 154.171875 -117.703125 C 154.171875 -126.921875 151.90625 -135.300781 147.375 -142.84375 C 142.851562 -150.394531 136.484375 -156.179688 128.265625 -160.203125 C 120.890625 -163.890625 111.25 -165.734375 99.34375 -165.734375 Z M 40.234375 -159.703125 L 40.234375 -69.40625 L 104.875 -69.40625 Z M 40.234375 -9.3125 L 147.875 -9.3125 L 111.15625 -60.359375 L 103.359375 -60.109375 L 40.234375 -60.109375 Z M 40.234375 -9.3125 "/></g></g></g><g fill="#ffffff" fill-opacity="1"><g transform="translate(1476.375427, 400.125003)"><g><path d="M 30.1875 -175.046875 L 157.6875 -175.046875 L 157.6875 -130.78125 L 75.953125 -130.78125 L 75.953125 -108.640625 L 143.859375 -108.640625 L 143.859375 -66.640625 L 75.953125 -66.640625 L 75.953125 -44.265625 L 157.6875 -44.265625 L 157.6875 0 L 30.1875 0 Z M 30.1875 -175.046875 "/></g></g></g></svg>