<svg xmlns="http://www.w3.org/2000/svg" xmlns:xlink="http://www.w3.org/1999/xlink" width="2200" zoomAndPan="magnify" viewBox="0 0 1650 599.999999" height="800" preserveAspectRatio="xMidYMid meet" version="1.0"><defs><g/><clipPath id="d2ae1a729a"><path d="M 361.042969 196.191406 L 542.542969 196.191406 L 542.542969 323 L 361.042969 323 Z M 361.042969 196.191406 " clip-rule="nonzero"/></clipPath><clipPath id="9a7bc35acb"><path d="M 361.042969 235 L 542.542969 235 L 542.542969 364 L 361.042969 364 Z M 361.042969 235 " clip-rule="nonzero"/></clipPath><clipPath id="c467d76182"><path d="M 361.042969 276 L 542.542969 276 L 542.542969 403.941406 L 361.042969 403.941406 Z M 361.042969 276 " clip-rule="nonzero"/></clipPath></defs><g clip-path="url(#d2ae1a729a)"><path fill="#000000" d="M 542.328125 196.335938 L 361.332031 196.191406 L 451.648438 322.003906 Z M 542.328125 196.335938 " fill-opacity="1" fill-rule="nonzero"/></g><g clip-path="url(#9a7bc35acb)"><path fill="#000000" d="M 539.675781 238.632812 L 451.648438 360.640625 L 364.058594 238.5625 L 539.675781 238.632812 M 542.542969 238.632812 C 542.542969 238.203125 542.472656 237.769531 542.257812 237.339844 C 541.753906 236.40625 540.75 235.761719 539.675781 235.761719 L 364.058594 235.6875 C 362.980469 235.6875 361.976562 236.261719 361.472656 237.269531 C 361.257812 237.699219 361.1875 238.128906 361.1875 238.5625 C 361.1875 239.136719 361.402344 239.710938 361.761719 240.210938 L 449.355469 362.292969 C 449.929688 363.007812 450.789062 363.511719 451.648438 363.511719 C 452.582031 363.511719 453.445312 363.082031 453.945312 362.292969 L 541.96875 240.355469 C 542.328125 239.855469 542.542969 239.277344 542.542969 238.632812 Z M 542.542969 238.632812 " fill-opacity="1" fill-rule="nonzero"/></g><g clip-path="url(#c467d76182)"><path fill="#000000" d="M 539.53125 279.132812 L 451.507812 401.070312 L 363.914062 278.992188 L 539.53125 279.132812 M 542.398438 279.132812 C 542.398438 278.703125 542.328125 278.273438 542.113281 277.839844 C 541.609375 276.90625 540.605469 276.261719 539.53125 276.261719 L 363.914062 276.117188 C 362.835938 276.117188 361.832031 276.691406 361.332031 277.699219 C 361.117188 278.128906 361.042969 278.558594 361.042969 278.992188 C 361.042969 279.566406 361.257812 280.140625 361.617188 280.640625 L 449.210938 402.722656 C 449.785156 403.4375 450.644531 403.941406 451.507812 403.941406 C 452.4375 403.941406 453.300781 403.511719 453.800781 402.722656 L 541.828125 280.859375 C 542.183594 280.355469 542.398438 279.707031 542.398438 279.132812 Z M 542.398438 279.132812 " fill-opacity="1" fill-rule="nonzero"/></g><g fill="#000000" fill-opacity="1"><g transform="translate(-12.372777, 399.97074)"><g><path d="M 30.171875 0 L 30.171875 -175.015625 L 95.3125 -175.015625 C 108.050781 -175.015625 119.828125 -171.828125 130.640625 -165.453125 C 141.453125 -159.085938 150.039062 -150.5 156.40625 -139.6875 C 162.78125 -128.875 165.96875 -117.097656 165.96875 -104.359375 L 165.96875 -70.65625 C 165.96875 -57.914062 162.78125 -46.140625 156.40625 -35.328125 C 150.039062 -24.515625 141.453125 -15.921875 130.640625 -9.546875 C 119.828125 -3.179688 108.050781 0 95.3125 0 Z M 30.171875 0 "/></g></g></g><g fill="#000000" fill-opacity="1"><g transform="translate(173.707455, 399.97074)"><g><path d="M 30.171875 -175.015625 L 157.671875 -175.015625 L 157.671875 -130.765625 L 75.9375 -130.765625 L 75.9375 -108.640625 L 143.84375 -108.640625 L 143.84375 -66.640625 L 75.9375 -66.640625 L 75.9375 -44.265625 L 157.671875 -44.265625 L 157.671875 0 L 30.171875 0 Z M 30.171875 -175.015625 "/></g></g></g><g fill="#000000" fill-opacity="1"><g transform="translate(359.787686, 399.97074)"><g><path d="M 10.5625 -175.28125 L 175.53125 -175.28125 L 93.046875 3.515625 Z M 93.046875 -18.609375 L 161.1875 -165.96875 L 25.140625 -165.96875 Z M 93.046875 -18.609375 "/></g></g></g><g fill="#000000" fill-opacity="1"><g transform="translate(545.867918, 399.97074)"><g><path d="M 94.296875 4.53125 C 69.992188 4.53125 51.257812 -1.207031 38.09375 -12.6875 C 24.9375 -24.175781 18.441406 -41.40625 18.609375 -64.375 L 59.59375 -64.375 C 59.425781 -54.820312 62.273438 -47.53125 68.140625 -42.5 C 74.015625 -37.46875 82.234375 -34.953125 92.796875 -34.953125 C 101.515625 -34.953125 108.382812 -36.375 113.40625 -39.21875 C 118.4375 -42.070312 120.953125 -46.4375 120.953125 -52.3125 C 120.953125 -57.164062 118.394531 -60.679688 113.28125 -62.859375 C 108.164062 -65.046875 103.09375 -66.597656 98.0625 -67.515625 C 93.039062 -68.441406 89.941406 -68.988281 88.765625 -69.15625 C 75.859375 -71.664062 64.707031 -74.722656 55.3125 -78.328125 C 45.925781 -81.929688 38.046875 -87.421875 31.671875 -94.796875 C 25.304688 -102.179688 22.125 -111.90625 22.125 -123.96875 C 22.125 -136.039062 25.304688 -146.3125 31.671875 -154.78125 C 38.046875 -163.25 46.554688 -169.578125 57.203125 -173.765625 C 67.847656 -177.953125 79.457031 -180.046875 92.03125 -180.046875 C 107.289062 -180.046875 120.492188 -177.195312 131.640625 -171.5 C 142.785156 -165.800781 151.546875 -157.164062 157.921875 -145.59375 C 161.109375 -140.0625 163.035156 -134.738281 163.703125 -129.625 C 164.378906 -124.519531 164.71875 -119.535156 164.71875 -114.671875 L 123.71875 -114.671875 C 123.71875 -123.722656 121.285156 -130.382812 116.421875 -134.65625 C 111.566406 -138.9375 104.023438 -141.078125 93.796875 -141.078125 C 85.578125 -141.078125 79.203125 -139.648438 74.671875 -136.796875 C 70.148438 -133.953125 67.890625 -130.097656 67.890625 -125.234375 C 67.890625 -119.867188 70.90625 -115.925781 76.9375 -113.40625 C 82.976562 -110.894531 90.609375 -108.632812 99.828125 -106.625 C 114.921875 -103.601562 126.695312 -100.707031 135.15625 -97.9375 C 143.625 -95.175781 150.957031 -90.273438 157.15625 -83.234375 C 163.363281 -76.191406 166.46875 -66.300781 166.46875 -53.5625 C 166.46875 -41.488281 163.113281 -31.09375 156.40625 -22.375 C 149.707031 -13.65625 140.863281 -6.988281 129.875 -2.375 C 118.894531 2.226562 107.035156 4.53125 94.296875 4.53125 Z M 94.296875 4.53125 "/></g></g></g><g fill="#000000" fill-opacity="1"><g transform="translate(731.948149, 399.97074)"><g><path d="M 34.953125 0 L 34.953125 -175.015625 L 108.125 -175.015625 C 120.363281 -175.015625 130.925781 -172.753906 139.8125 -168.234375 C 150.039062 -163.035156 158.171875 -155.613281 164.203125 -145.96875 C 170.242188 -136.332031 173.265625 -125.734375 173.265625 -114.171875 C 173.265625 -102.597656 170.285156 -91.945312 164.328125 -82.21875 C 158.378906 -72.5 150.289062 -65.039062 140.0625 -59.84375 C 131.34375 -55.320312 120.695312 -53.0625 108.125 -53.0625 L 80.71875 -53.0625 L 80.71875 0 Z M 34.953125 0 "/></g></g></g><g fill="#000000" fill-opacity="1"><g transform="translate(918.02838, 399.97074)"><g><path d="M 25.65625 0 L 25.65625 -175.015625 L 34.953125 -175.015625 L 34.953125 -125.484375 C 52.222656 -125.484375 68.566406 -122.171875 83.984375 -115.546875 C 99.410156 -108.921875 112.90625 -99.695312 124.46875 -87.875 C 136.039062 -76.0625 144.925781 -62.53125 151.125 -47.28125 L 151.125 -175.015625 L 160.4375 -175.015625 L 160.4375 0 L 151.125 0 C 151.125 -20.957031 145.925781 -40.363281 135.53125 -58.21875 C 125.144531 -76.070312 111.023438 -90.191406 93.171875 -100.578125 C 75.316406 -110.972656 55.910156 -116.171875 34.953125 -116.171875 L 34.953125 0 Z M 25.65625 0 "/></g></g></g><g fill="#000000" fill-opacity="1"><g transform="translate(1104.108612, 399.97074)"><g><path d="M 30.171875 -175.015625 L 157.671875 -175.015625 L 157.671875 -130.765625 L 75.9375 -130.765625 L 75.9375 -108.640625 L 143.84375 -108.640625 L 143.84375 -66.640625 L 75.9375 -66.640625 L 75.9375 -44.265625 L 157.671875 -44.265625 L 157.671875 0 L 30.171875 0 Z M 30.171875 -175.015625 "/></g></g></g><g fill="#000000" fill-opacity="1"><g transform="translate(1290.1889, 399.97074)"><g><path d="M 165.46875 0 L 30.9375 0 L 30.9375 -175.015625 L 99.078125 -175.015625 C 113.660156 -175.015625 125.5625 -172.421875 134.78125 -167.234375 C 143.832031 -162.203125 150.875 -155.328125 155.90625 -146.609375 C 160.9375 -137.890625 163.453125 -128.25 163.453125 -117.6875 C 163.453125 -104.613281 159.425781 -92.921875 151.375 -82.609375 C 143.332031 -72.296875 133.191406 -65.460938 120.953125 -62.109375 Z M 46.765625 -165.71875 L 115.171875 -70.15625 C 126.398438 -72.507812 135.703125 -78.128906 143.078125 -87.015625 C 150.460938 -95.898438 154.15625 -106.125 154.15625 -117.6875 C 154.15625 -126.90625 151.890625 -135.285156 147.359375 -142.828125 C 142.835938 -150.378906 136.46875 -156.164062 128.25 -160.1875 C 120.875 -163.875 111.234375 -165.71875 99.328125 -165.71875 Z M 40.234375 -159.6875 L 40.234375 -69.40625 L 104.859375 -69.40625 Z M 40.234375 -9.296875 L 147.859375 -9.296875 L 111.15625 -60.359375 L 103.359375 -60.09375 L 40.234375 -60.09375 Z M 40.234375 -9.296875 "/></g></g></g><g fill="#000000" fill-opacity="1"><g transform="translate(1476.269075, 399.97074)"><g><path d="M 30.171875 -175.015625 L 157.671875 -175.015625 L 157.671875 -130.765625 L 75.9375 -130.765625 L 75.9375 -108.640625 L 143.84375 -108.640625 L 143.84375 -66.640625 L 75.9375 -66.640625 L 75.9375 -44.265625 L 157.671875 -44.265625 L 157.671875 0 L 30.171875 0 Z M 30.171875 -175.015625 "/></g></g></g></svg>